<svg xmlns="http://www.w3.org/2000/svg" viewBox="0 0 256 256">
  <defs>
      <!-- QUANTUM FREQUENCY HARMONICS - INTERDIMENSIONAL CONSTANTS -->
      <linearGradient id="vibrantGradient" x1="0%" y1="0%" x2="100%" y2="100%">
          <stop offset="0%" style="stop-color:#FF0A54" />
          <stop offset="25%" style="stop-color:#FF477E" />
          <stop offset="50%" style="stop-color:#0AFFEF" />
          <stop offset="75%" style="stop-color:#845EF7" />
          <stop offset="100%" style="stop-color:#B5179E" />
      </linearGradient>
      <!-- ULTRA-SHARP PHASE-OPTIMIZED ENERGY FIELD - 89.2% EFFICIENCY -->
      <filter id="ultraSharpGlow" x="-30%" y="-30%" width="160%" height="160%">
          <feGaussianBlur in="SourceGraphic" stdDeviation="1.5" />
          <feComponentTransfer>
              <feFuncA type="linear" slope="0.6" />
          </feComponentTransfer>
          <feMerge>
              <feMergeNode />
              <feMergeNode in="SourceGraphic" />
          </feMerge>
      </filter>
      <!-- ENHANCED TACHYON PARTICLES -->
      <radialGradient id="particleGradient" cx="50%" cy="50%" r="50%">
          <stop offset="0%" style="stop-color:#0AFFEF;stop-opacity:1.0" />
          <stop offset="40%" style="stop-color:#845EF7;stop-opacity:0.6" />
          <stop offset="100%" style="stop-color:#B5179E;stop-opacity:0" />
      </radialGradient>
      <!-- CRYSTALLINE FACE GRADIENTS -->
      <linearGradient id="faceGradient1" x1="0%" y1="0%" x2="100%" y2="100%">
          <stop offset="0%" style="stop-color:#0AFFEF;stop-opacity:0.7" />
          <stop offset="100%" style="stop-color:#B5179E;stop-opacity:0.3" />
      </linearGradient>
      <linearGradient id="faceGradient2" x1="100%" y1="0%" x2="0%" y2="100%">
          <stop offset="0%" style="stop-color:#FF0A54;stop-opacity:0.7" />
          <stop offset="100%" style="stop-color:#0AFFEF;stop-opacity:0.3" />
      </linearGradient>
      <!-- PRECISION STROKE PATTERN -->
      <pattern id="precisionPattern" patternUnits="userSpaceOnUse" width="6" height="6">
          <rect width="6" height="6" fill="none"/>
          <circle cx="3" cy="3" r="0.8" fill="#333333" opacity="0.3"/>
      </pattern>
  </defs>
  
  <!-- macOS rounded square background - LIGHT WHITE -->
  <rect width="256" height="256" rx="58" fill="#FAFAFA" />
  
  <!-- MAIN GEOMETRY SECTION - CENTERED -->
  <g transform="translate(128, 128) scale(1.15)">
      <!-- Multiversal boundary - ULTRA DEFINITION -->
      <circle cx="0" cy="0" r="85" fill="url(#precisionPattern)" stroke="#333333" stroke-width="1.2"
              opacity="0.6" />
      
      <!-- Octahedron vertices - CRYSTALLINE PRECISION -->
      <g fill="url(#vibrantGradient)" opacity="1.0">
          <circle cx="0" cy="-80" r="4" filter="url(#ultraSharpGlow)" />
          <circle cx="80" cy="0" r="4" filter="url(#ultraSharpGlow)" />
          <circle cx="0" cy="80" r="4" filter="url(#ultraSharpGlow)" />
          <circle cx="-80" cy="0" r="4" filter="url(#ultraSharpGlow)" />
          <circle cx="0" cy="0" r="4" filter="url(#ultraSharpGlow)" />
      </g>
      
      <!-- Quantum stability structure - MAXIMUM DEFINITION -->
      <g stroke="url(#vibrantGradient)" stroke-width="1.5" opacity="0.9" fill="none">
          <line x1="0" y1="-80" x2="80" y2="0" />
          <line x1="0" y1="-80" x2="0" y2="0" />
          <line x1="0" y1="-80" x2="-80" y2="0" />
          <line x1="0" y1="80" x2="80" y2="0" />
          <line x1="0" y1="80" x2="0" y2="0" />
          <line x1="0" y1="80" x2="-80" y2="0" />
          <line x1="80" y1="0" x2="0" y2="0" />
          <line x1="0" y1="0" x2="-80" y2="0" />
      </g>
      
      <!-- Flux field faces - ENHANCED VISIBILITY -->
      <g opacity="0.4">
          <path d="M 0,-80 L 80,0 L 0,0 Z" fill="url(#faceGradient1)" />
          <path d="M 0,-80 L 0,0 L -80,0 Z" fill="url(#faceGradient2)" />
          <path d="M 0,-80 L -80,0 L 0,0 Z" fill="url(#faceGradient1)" />
          <path d="M 0,-80 L 0,0 L 80,0 Z" fill="url(#faceGradient2)" />
          <path d="M 0,80 L 80,0 L 0,0 Z" fill="url(#faceGradient2)" />
          <path d="M 0,80 L 0,0 L -80,0 Z" fill="url(#faceGradient1)" />
          <path d="M 0,80 L -80,0 L 0,0 Z" fill="url(#faceGradient2)" />
          <path d="M 0,80 L 0,0 L 80,0 Z" fill="url(#faceGradient1)" />
      </g>
      
      <!-- Harmonic alignment circles - CRYSTALLINE -->
      <g stroke="#333333" stroke-width="1" opacity="0.5" fill="none">
          <circle cx="0" cy="0" r="40" stroke-dasharray="2 2" />
          <circle cx="0" cy="0" r="60" stroke-dasharray="3 3" />
      </g>
      
      <!-- INTERDIMENSIONAL TRANSMITTER - ULTRA SHARP -->
      <path d="M -15,-60 
             L -45,-30 
             C -60,-15 -60,15 -45,30 
             L -15,60 
             L 15,60 
             L 45,30 
             C 60,15 60,-15 45,-30 
             L 15,-60 
             Z" fill="none" stroke="url(#vibrantGradient)" stroke-width="7"
            stroke-linejoin="round" stroke-linecap="round" filter="url(#ultraSharpGlow)">
          <animate attributeName="stroke-width" values="7;8.5;7" dur="2.5s"
                   repeatCount="indefinite" calcMode="spline"
                   keySplines="0.4 0 0.2 1; 0.4 0 0.2 1" />
      </path>
  </g>
</svg>